<?xml version="1.0" encoding="UTF-8" standalone="no"?>
<!-- Created with Inkscape (http://www.inkscape.org/) -->

<svg
   xmlns:dc="http://purl.org/dc/elements/1.1/"
   xmlns:cc="http://creativecommons.org/ns#"
   xmlns:rdf="http://www.w3.org/1999/02/22-rdf-syntax-ns#"
   xmlns:svg="http://www.w3.org/2000/svg"
   xmlns="http://www.w3.org/2000/svg"
   xmlns:sodipodi="http://sodipodi.sourceforge.net/DTD/sodipodi-0.dtd"
   xmlns:inkscape="http://www.inkscape.org/namespaces/inkscape"
   width="85mm"
   height="55mm"
   viewBox="0 0 85 55"
   version="1.1"
   id="svg8"
   inkscape:version="0.92.0 r15299"
   sodipodi:docname="jd+.svg"
   inkscape:export-filename="C:\Users\ZW20hj\Desktop\jd+.png"
   inkscape:export-xdpi="88.776886"
   inkscape:export-ydpi="88.776886">
  <defs
     id="defs2" />
  <sodipodi:namedview
     id="base"
     pagecolor="#ffffff"
     bordercolor="#666666"
     borderopacity="1.0"
     inkscape:pageopacity="0.0"
     inkscape:pageshadow="2"
     inkscape:zoom="1.696191"
     inkscape:cx="77.608315"
     inkscape:cy="90.622238"
     inkscape:document-units="mm"
     inkscape:current-layer="g4495"
     showgrid="false"
     inkscape:window-width="1680"
     inkscape:window-height="988"
     inkscape:window-x="-8"
     inkscape:window-y="-8"
     inkscape:window-maximized="1"
     showguides="false"
     units="mm" />
  <metadata
     id="metadata5">
    <rdf:RDF>
      <cc:Work
         rdf:about="">
        <dc:format>image/svg+xml</dc:format>
        <dc:type
           rdf:resource="http://purl.org/dc/dcmitype/StillImage" />
        <dc:title></dc:title>
      </cc:Work>
    </rdf:RDF>
  </metadata>
  <g
     inkscape:label="Layer 1"
     inkscape:groupmode="layer"
     id="layer1"
     transform="translate(0,-242)">
    <g
       transform="matrix(0.35277777,0,0,-0.35277777,62.064825,179.45347)"
       inkscape:label="ink_ext_XXXXXX"
       id="g4493">
      <g
         transform="matrix(0.1,0,0,0.1,14.788221,-651.15348)"
         id="g4495"
         inkscape:export-xdpi="88"
         inkscape:export-ydpi="88">
        <path
           inkscape:connector-curvature="0"
           id="path4497"
           style="fill:#0099ff;fill-opacity:1;fill-rule:evenodd;stroke:none"
           d="m -291.07966,4550.2509 c 1.52,24.3 33.72,27.08 46.24,12.77 13.36,-15.24 5.29,-45.78 -18.45,-44.29 l -10.8,0.67 c -7.51,0.47 -18.14,12.54 -17.67,20.05 z m -96.03,166.09 -4.99,-79.77 37.58,-22.3 -11.28,54.16 14.51,2.15 c 11.47,-68.29 7.61,-64.41 59,-95.88 8.64,11.29 19.43,7.31 20.08,17.71 l 2.36,37.77 c 0.59,9.32 -38.61,45.72 -45.19,56.97 l 9.21,9.85 37.67,-39.87 3.23,51.57 z m -6.48,-103.44 -1.52,-24.4 29.11,7.13 z m -2.46,-39.48 -2.54,-40.59 45.9,-16.32 43.89,19.67 1.36,12.4 c 0.32,5.19 1.17,4.74 3.19,7.89 -4.43,2.72 -41.04,26.96 -41.62,26.99 -3.15,0.2 -30.88,-5.62 -50.18,-10.04 z m -3.49,-55.63 -1.53,-24.48 29.84,13.98 c -11.93,2.56 -19.08,6.87 -28.31,10.5 z m -3.11,-49.79 -12.45,-198.94 317.809999,-19.88 27.99,447.28 -174.049999,10.88 -3.05,-48.84 39.39,33.33 10.4,-9.85 c -7.44,-9.89 -50.9,-41.12 -51.48,-50.48 l -3.04,-48.55 c 8.35,-2.49 15.34,-9.08 21.06,-9.43 10.52,-0.66 41.48,19.21 45.6,29.21 4.79,11.6 17.41,43.09 19.32,56.11 l 13.14,-4.12 -15.7,-50.13 64.92,27.87 7.719999,-21.38 -60.849999,-26.58 -0.63,-4.74 47.53,-14.87 -3.77,-14.86 -65.73,23.31 -44.06,-20.47 -2.08,-23.04 41.81,-24.27 68.54,15.04 2.04,-14 -51.94,-11.54 58.79,-38.93 -12.4,-17.93 -58.7,37.32 11.45,-54.62 -15.19,-1.41 c -0.05,7.17 -10.28,52.96 -13.17,61.46 -4.22,12.29 -32.32,25.19 -43.05,33.38 l -18.72,-11.06 -3.86,-47.09 c -0.59,-9.37 38.64,-45.77 45.15,-57.01 l -10.88,-7.91 -35.34,38.52 -4.84,-68.01 -21.58,1.35 4.38,70.11 -42.26,-35.85 -8.48,11.52 c 8.41,10.75 51.85,41.98 52.43,51.3 l 2.36,37.78 c 0.66,10.38 -10.55,7.79 -17.72,20.06 -54.8,-24.75 -50.62,-21.48 -70.44,-87.66 l -13.22,6.12 17.65,50.21 -40.8,-18.71" />
        <path
           inkscape:connector-curvature="0"
           id="path4499"
           style="fill:#fbc707;fill-opacity:1;fill-rule:evenodd;stroke:none"
           d="m -149.67966,3700.4669 21.99,344.524 -196.55,12.54 -4.81,-75.4 -15.17,0.96 4.81,75.41 -106.06,6.77 -1.87,-29.32 49.4,-65.074 -9.71,-10.063 -41.09,53.227 -7.52,-117.801 12.41,-0.789 -0.97,-15.207 -12.41,0.793 -7.13,-111.648 43.78,46.445 11.49,-7.16 2.3,-1.196 -58.98,-60.25 -1.69,-26.476 106.06,-6.77 4.26,66.637 12.67,-0.805 -4.26,-66.64 z m -56.84,316.284 -10.53,6.66 -63.46,-61.272 11.91,-8.168 z m 50.55,-149.843 0.97,15.18 -88.57,5.652 -0.49,-7.613 c -0.37,-5.813 1.29,-7.68 7.11,-8.051 z m -270.62,19.773 c -2.74,-42.894 33.27,-83.402 75.79,-86.121 42.3,-2.695 85.69,28.996 88.35,70.567 l 0.97,15.187 c 2.61,40.887 -35.17,78.516 -76.09,81.129 l -2.56,0.16 c -45.38,2.899 -83.37,-32.453 -86.3,-78.355 z m 189.86,-157.675 11.11,8.09 -53.12,69.429 -11.74,-7.785 53.75,-69.734" />
        <path
           inkscape:connector-curvature="0"
           id="path4501"
           style="fill:#231f20;fill-opacity:1;fill-rule:nonzero;stroke:none"
           d="m 107.11034,4199.6809 c 89.4,5.37 165.63,5.13 228.67,-0.72 17.19,-1.6 32.63,-6.58 46.3,-14.94 13.69,-8.37 19.99,-18.32 18.92,-29.88 -1.92,-20.58 -14.45,-34.87 -37.58,-42.85 -3.01,-1.24 -95.21,-5.86 -276.64,-13.82 -24.87,-1.05 -51.44,-2.89 -79.0500003,-4.81 -3.49,-16.66 -7.08000003,-34.29 -10.78,-52.91 -17.8300007,-93.308 -7.9400007,-183.484 -20.6600007,-267.976 -1.57,-10.32 -4.28,-20.336 -7.35,-30.344 l -0.71,0.844 c -9.52,-3.015 -17.4,-7.406 -23.66,-13.183 l -8.34,7.289 c -13,35.758 -20.44,75.773 -22.36,120.058 -0.71,18.11 7.95,95.407 25.97,231.862 -102.399999,-5.52 -210.709999,-4.42 -293.889999,36.45 -7.29,14.86 -10.93,22.29 -10.93,22.29 1.49,16.06 18.96,29.13 52.42,39.2 18.75,5.76 37.67,11.37 56.79,16.82 80.34,-12.97 142.59,-15.17 209.319999,-12.82 24.06,176.44 39.2800004,275.97 45.68000067,298.6 10.29000003,36.34 25.97000033,36.64 47.05000033,0.86 13.28,-22.54 22.4,-54.64 27.34,-96.36 4.95,-41.69 4.46,-73.04 -1.47,-94 -2.8,-9.87 -8.21,-21.86 -16.26,-36.01 -8.06,-14.17 -13.39,-25.86 -16.01,-35.12 -2.89,-10.22 -5.89,-21.48 -8.99,-33.78 23.79,1.58 48.94,3.4 76.22,5.25" />
        <path
           inkscape:connector-curvature="0"
           id="path4503"
           style="fill:#23713f;fill-opacity:1;fill-rule:evenodd;stroke:none"
           d="m 155.98034,4675.9109 -19.29,-351.25 c 62.34,34.88 154.26,84.88 155.29,103.74 0.75,13.47 -7.89,17.18 -6.87,35.84 l 0.98,17.67 c 2.47,45.1 48.58,86.59 80.41,101.08 34.63,15.76 70.66,24.36 105.34,37.39 l 2.09,38.07 z m -20.62,-375.57 -3.95,-71.91 317.95,-17.46 14.69,267.5 c -21.99,-46.38 -58.16,-77.05 -117.18,-73.81 l -2.94,0.16 -26.3,4.76 c 6.82,8.83 57.07,49.5 70.62,61.53 16.8,14.94 48.25,52.46 55.15,76.08 -9.68,-5.74 -39.95,-45.76 -54.22,-58.36 -20,-17.75 -37.58,-33.7 -57.51,-51.55 -23.04,-20.65 -96.3,-87.14 -124.13,-92.98 l -0.33,-5.89 23.12,-10.1 c 24.42,11.23 35.39,36.45 72.87,34.39 l 8.81,-0.48 c 72.44,-3.98 104.37,-77.09 140.09,-87.52 -10.7,-13 -94.9,-42.09 -123.46,-40.52 l -11.8,0.65 c -49.29,2.71 -67.3,37.65 -81.75,72.5 54.44,-15.86 64.33,-30.16 140.02,-34.32 -3.68,5.68 -152.56,39.35 -176.86,62.96 -7.25,-4.31 -36.09,-21.07 -62.89,-35.63" />
        <path
           inkscape:connector-curvature="0"
           id="path4505"
           style="fill:#a04637;fill-opacity:1;fill-rule:evenodd;stroke:none"
           d="m 350.33034,3653.8419 9.53,84.785 c -1.75,0.371 -3.69,0.703 -5.93,0.949 l -18.98,2.137 c -4.58,0.511 -9.97,-3.153 -10.29,-6.032 -1.59,-14.089 3.67,-23.082 6.75,-31.804 l -6.82,-33.082 c -10.61,7.23 -29.37,19.57 -47.82,13.523 l -17.48,26.926 -2.42,-1.617 -18.95,-30.301 -47.32,55.105 1.92,1.668 c 8,9.485 45.92,54.235 54.68,56.047 31.57,6.469 69.31,-0.754 97.03,-10.601 -4.52,7.847 -23.76,14.699 -36.62,16.144 l -35.62,4.004 c -9.26,1.039 -17.83,0.141 -24.26,-2.09 10.54,29.746 50.1,72.383 58.7,115.977 l 2.46,9.812 -4.86,-9.546 c -6.82,-19.313 -23.72,-47.629 -34.51,-65.055 -9.44,-15.223 -37.4,-47.156 -41.83,-58.567 -6.07,5.567 -13.3,46.149 -17.64,57.254 -9.02,23.036 -21.58,31.887 -30.88,49.559 l -2.29,-2.535 c -0.88,-0.715 2.01,-1.887 2.4,-2.418 2.07,-2.903 0.57,-0.809 2.72,-4.313 2.39,-3.961 3.23,-5.504 5.17,-8.859 3.95,-6.84 4.87,-8.703 8.69,-16.828 4.68,-9.996 10.12,-27.012 8.9,-40.434 -14.92,2.028 -22.34,9.711 -41.91,11.91 l -7.15,0.805 c -6.65,0.746 -4.48,-0.516 -7.63,-3.957 45.95,-5.168 59.45,-17.758 71.13,-51.227 -14,-20.562 -112.39,-95.527 -130.69,-93.468 -5.43,0.609 -6.9,2.453 -6.28,7.894 l 0.8,7.145 c 17.37,2.601 70.97,39.465 80.51,53.414 -26.7,3.004 -36.51,1.484 -53.62,13.129 l 13.81,17.808 c -12.74,24.578 -35.52,18.211 -41.82,37.926 -5.23,16.344 -16.65,29.774 -28.03,42.238 l -19.99,-177.863 z m 21.06,187.351 0.1,0.926 -0.52,-0.434 z m 0.15,1.371 17.35,154.337 -316.44,35.56 -17.9,-159.197 55.05,-19.676 1.6,14.23 c 3.09,27.555 -16.31,38.926 -25.01,55.676 19.38,6.758 28.46,-0.32 45.87,18.336 6.61,7.082 20.47,37.25 22.01,50.961 l 4.74,-0.54 c 2.54,-17.023 31.37,-30.558 48.75,-36.737 l -1.07,-9.493 c -1.7,-15.191 8.66,-37.023 22.1,-38.535 10.1,-1.133 30.35,40.34 23.57,59.875 10.27,-2.043 14.6,-6.445 25.57,-7.68 15.12,-1.699 45.04,12.758 57.24,17.594 -3.47,-30.953 3.01,-57.195 26.31,-65.469 l -0.53,-4.734 c -22.39,-2.644 -46.46,-28.269 -49.68,-56.91 l -1.33,-11.879 c 5.19,-1.812 5.2,-2.973 11.63,-3.695 l 4.74,-0.532 c 21.46,-2.414 31.85,1.555 45.43,8.508" />
        <path
           inkscape:connector-curvature="0"
           id="path4507"
           style="fill:#7f5433;fill-opacity:1;fill-rule:nonzero;stroke:none;stroke-width:0.78610319"
           d="m -1816.2551,3450.3825 v 134.1341 h -1.1078 c -15.237,0 -26.4716,-3.2121 -33.7521,-9.6333 -7.2766,-6.4657 -11.871,-17.2133 -13.7892,-32.2398 h -8.084 l 0.3785,24.7431 0.3864,24.8706 v 0 h 76.5665 v 0 h 76.5715 v 0 l 0.3854,-24.7456 0.3825,-24.8681 h -8.087 c -1.9152,15.0265 -6.5087,25.7741 -13.7902,32.2398 -7.2805,6.4212 -18.514,9.6333 -33.751,9.6333 h -1.0229 v 0 -134.1341 c 0,-7.1665 1.5753,-11.9413 4.7249,-14.3693 3.193,-2.3893 9.9597,-3.9106 20.3443,-4.5703 v -6.1354 h -45.6685 -45.7575 v 6.1354 c 10.3886,0.6597 17.1562,2.181 20.3444,4.5703 3.1545,2.428 4.7258,7.2028 4.7258,14.3693" />
        <path
           inkscape:connector-curvature="0"
           id="path4509"
           style="fill:#7f5433;fill-opacity:1;fill-rule:nonzero;stroke:none;stroke-width:0.78610319"
           d="m -1692.9507,3450.175 v 64.1443 c 0,7.4918 -0.8529,12.4354 -2.5557,14.8215 -1.7018,2.428 -5.3198,3.7886 -10.8936,4.1182 v 5.926 h 24.4318 24.5563 v 0 -89.01 c 0,-7.4936 0.8489,-12.4329 2.5556,-14.8215 1.7028,-2.428 5.3199,-3.7862 10.8936,-4.1157 v -5.9303 h -31.1529 -31.2844 v 5.9303 c 5.5738,0.3295 9.2343,1.6877 10.9401,4.1157 1.6563,2.3886 2.5092,7.3279 2.5092,14.8215 z m 17.7076,145.7045 c 5.5708,0 10.2572,-1.854 14.0867,-5.5595 3.8295,-3.7055 5.7477,-8.2339 5.7477,-13.6271 0,-5.3932 -1.9182,-9.9217 -5.7477,-13.6271 -3.8295,-3.7056 -8.5159,-5.5564 -14.0867,-5.5564 -5.5777,0 -10.2611,1.8508 -14.0906,5.5564 -3.8295,3.7054 -5.7477,8.2339 -5.7477,13.6271 0,5.3932 1.9182,9.9216 5.7477,13.6271 3.8295,3.7055 8.5129,5.5595 14.0906,5.5595" />
        <path
           inkscape:connector-curvature="0"
           id="path4511"
           style="fill:#7f5433;fill-opacity:1;fill-rule:nonzero;stroke:none;stroke-width:0.78610319"
           d="m -1622.0005,3450.175 v 64.1443 c 0,7.4918 -0.8529,12.4354 -2.5557,14.8215 -1.7018,2.428 -5.3198,3.7886 -10.8936,4.1182 v 5.926 h 24.3014 24.3043 v 0 -19.1842 0 0 c 2.8531,4.8973 6.4276,9.2206 10.8521,12.8849 7.4505,6.1355 16.1323,9.1813 26.007,9.1813 10.2147,0 18.5151,-2.882 24.9388,-8.6854 4.0449,-3.7055 6.8556,-8.112 8.3459,-13.2564 v 0 c 3.9145,5.0637 8.4269,9.4264 13.5767,13.1338 8.0879,5.8866 16.0049,8.808 23.7489,8.808 10.2996,0 18.685,-3.2509 25.1552,-9.7578 6.4266,-6.505 9.6622,-14.9441 9.6622,-25.1952 v -56.939 c 0,-7.4936 0.8064,-12.4329 2.4242,-14.8215 1.6178,-2.428 5.1113,-3.7862 10.4311,-4.1157 v -5.9303 h -30.9029 -30.9405 v 5.9303 c 5.5738,0.3295 9.1908,1.6877 10.8936,4.1157 1.7028,2.3886 2.5557,7.3279 2.5557,14.8215 v 51.9998 c 0,9.0574 -0.9379,15.2322 -2.8107,18.4857 -1.8757,3.2509 -5.4502,4.8973 -10.685,4.8973 -4.3395,0 -8.8944,-1.7296 -13.6163,-5.188 -3.3621,-2.5526 -6.0877,-5.4345 -8.2609,-8.5611 v 0 -61.6337 c 0,-7.4936 0.8529,-12.4329 2.5557,-14.8215 1.7027,-2.428 5.3198,-3.7862 10.8936,-4.1157 v -5.9303 h -31.153 -31.2804 v 5.9303 c 5.5738,0.3295 9.1908,1.6877 10.8936,4.0325 1.7028,2.3893 2.5517,7.3304 2.5517,14.9047 v 51.7509 c 0,9.2231 -0.9339,15.4811 -2.8067,18.7346 -1.8757,3.2509 -5.4502,4.8973 -10.77,4.8973 -4.382,0 -8.9369,-1.7296 -13.6618,-5.188 -3.4016,-2.5526 -6.1311,-5.4345 -8.2154,-8.5611 v 0 -61.6337 c 0,-7.5743 0.8489,-12.5154 2.5557,-14.9047 1.7027,-2.3448 5.3198,-3.703 10.8936,-4.0325 v -5.9303 h -31.153 -31.2844 v 5.9303 c 5.5738,0.3295 9.2333,1.6877 10.9401,4.1157 1.6563,2.3886 2.5092,7.3279 2.5092,14.8215" />
        <path
           inkscape:connector-curvature="0"
           id="path4513"
           style="fill:#7f5433;fill-opacity:1;fill-rule:nonzero;stroke:none;stroke-width:0.78610319"
           d="m -1367.392,3421.9315 c -16.3024,0 -29.2386,5.3125 -38.7733,15.9745 -9.5783,10.6645 -14.3456,25.0313 -14.3456,43.1481 0,17.4958 5.0263,32.0709 15.0245,43.6389 10.0061,11.5705 22.5599,17.374 37.5845,17.374 16.5573,0 28.8147,-5.4739 36.8166,-16.3847 6.7251,-9.0156 10.5972,-22.357 11.5775,-40.0605 v 0 h -64.5651 v 0 c 0.9764,-13.5026 3.4856,-23.9595 7.4426,-31.3699 5.3238,-9.7166 13.7082,-14.5751 25.1582,-14.5751 4.9334,0 9.6168,1.3994 14.1717,4.1576 4.5133,2.8013 9.0218,7.0834 13.4917,12.8868 l 5.6598,-3.5417 c -5.9988,-10.1267 -13.1913,-17.8673 -21.5757,-23.2192 -8.3845,-5.352 -17.6227,-8.0288 -27.6674,-8.0288 z m 16.6848,72.7497 v 0 2.181 c 0,13.7104 -1.1889,23.4269 -3.532,29.1083 -2.3867,5.6402 -6.4277,8.481 -12.1724,8.481 -6.0452,0 -10.6001,-2.8408 -13.6193,-8.5641 -3.0656,-5.6815 -4.5559,-14.1618 -4.5559,-25.4028 v -5.8034 0 h 33.8796" />
        <path
           inkscape:connector-curvature="0"
           id="path4515"
           style="fill:#7f5433;fill-opacity:1;fill-rule:nonzero;stroke:none;stroke-width:0.78610319"
           d="m -1132.9152,3542.6873 c -3.9145,13.9129 -10.2997,24.9901 -19.198,33.2215 -8.8943,8.2364 -18.8965,12.3521 -29.964,12.3521 -8.4665,0 -15.322,-2.181 -20.5143,-6.5875 -5.1924,-4.3621 -7.7866,-10.1686 -7.7866,-17.4134 0,-6.917 2.6792,-12.8061 8.084,-17.7034 5.3228,-4.8586 15.1945,-10.2098 29.5816,-16.1796 19.198,-7.9457 33.0722,-16.3459 41.5416,-25.1976 8.3854,-8.7686 12.6003,-19.1448 12.6003,-31.1255 0,-16.4267 -5.7052,-29.3966 -17.1552,-39.0299 -11.4075,-9.5921 -26.857,-14.4088 -46.3089,-14.4088 -10.6396,0 -22.8536,2.3862 -36.6893,7.1197 -4.0419,1.4412 -7.0611,1.7714 -8.9793,1.0311 -1.8727,-0.7817 -3.4055,-2.8407 -4.4669,-6.2161 l -0.6404,-2.0591 h -7.8715 0.043 v 61.2618 0 h 7.489 c 2.8106,-15.9327 9.0218,-28.7369 18.6416,-38.4115 9.5782,-9.6753 20.8543,-14.5339 33.7096,-14.5339 9.6622,0 17.4102,2.5944 23.3239,7.78 5.9177,5.1881 8.8519,12.0639 8.8519,20.5861 0,6.917 -2.8106,12.8061 -8.4655,17.7035 -5.5787,4.941 -15.8783,10.4981 -30.9454,16.7999 -17.7926,7.4498 -30.644,15.5617 -38.561,24.2478 -7.7865,8.6047 -11.7049,19.0616 -11.7049,31.3305 0,14.9879 5.0648,26.8441 15.237,35.6127 10.1297,8.7692 23.7914,13.1337 41.0287,13.1337 9.0673,0.083 19.5794,-2.1422 31.5423,-6.6269 4.8108,-1.8533 8.3814,-2.4298 10.7206,-1.7314 2.3432,0.6597 4.2585,2.8433 5.7488,6.5463 l 0.8528,2.1835 h 7.3616 v 0 -53.6856 0 h -7.1066" />
        <path
           inkscape:connector-curvature="0"
           id="path4517"
           style="fill:#7f5433;fill-opacity:1;fill-rule:nonzero;stroke:none;stroke-width:0.78610319"
           d="m -1048.1718,3421.9315 c -16.3024,0 -29.2387,5.3125 -38.7744,15.9745 -9.5773,10.6645 -14.3446,25.0313 -14.3446,43.1481 0,17.4958 5.0223,32.0709 15.0245,43.6389 10.0022,11.5705 22.56,17.374 37.5845,17.374 16.5534,0 28.8138,-5.4739 36.8128,-16.3847 6.729,-9.0156 10.601,-22.357 11.5774,-40.0605 v 0 h -64.565 v 0 c 0.9803,-13.5026 3.4895,-23.9595 7.4465,-31.3699 5.3238,-9.7166 13.7082,-14.5751 25.1582,-14.5751 4.9334,0 9.6157,1.3994 14.1716,4.1576 4.5124,2.8013 9.0219,7.0834 13.4918,12.8868 l 5.65975,-3.5417 c -5.99975,-10.1267 -13.19525,-17.8673 -21.57965,-23.2192 -8.3854,-5.352 -17.6187,-8.0288 -27.6634,-8.0288 z m 16.6838,72.7497 v 0 2.181 c 0,13.7104 -1.1928,23.4269 -3.532,29.1083 -2.3857,5.6402 -6.4277,8.481 -12.1715,8.481 -6.0452,0 -10.601,-2.8408 -13.6231,-8.5641 -3.0617,-5.6815 -4.5559,-14.1618 -4.5559,-25.4028 v -5.8034 0 h 33.8825" />
        <path
           inkscape:connector-curvature="0"
           id="path4519"
           style="fill:#7f5433;fill-opacity:1;fill-rule:nonzero;stroke:none;stroke-width:0.78610319"
           d="m -973.4751,3450.175 v 64.1443 c 0,7.4918 -0.84991,12.4354 -2.54972,14.8215 -1.70969,2.428 -5.32672,3.7886 -10.90052,4.1182 v 5.926 h 24.30134 24.30134 v 0 -20.0071 0 0 c 3.24149,4.5697 6.64111,8.6029 10.21861,12.0195 7.57997,7.2472 15.36746,10.8696 23.32296,10.8696 6.38417,0 11.57254,-1.7709 15.4564,-5.3513 3.91352,-3.5812 5.87027,-8.2759 5.87027,-14.0793 0,-5.0636 -1.49227,-9.0568 -4.46694,-11.9807 -3.02407,-2.9239 -7.02653,-4.4065 -12.13584,-4.4065 -2.8956,0 -5.36626,0.5766 -7.32301,1.6903 -1.99629,1.1111 -4.28906,3.2508 -6.84865,6.3798 -1.99629,2.428 -3.61704,4.0745 -4.89189,5.0637 -1.23533,0.948 -2.39159,1.4413 -3.48856,1.4413 -3.15256,0 -6.30511,-1.8102 -9.45766,-5.3932 -2.25324,-2.5944 -3.78504,-5.3107 -4.63495,-8.1513 -0.81037,-2.8427 -1.23532,-6.712 -1.23532,-11.6506 v -45.4542 c 0,-7.328 1.19579,-12.1859 3.5775,-14.6139 2.34218,-2.3911 7.36255,-3.8324 15.02157,-4.3233 v -5.9303 h -33.79852 -33.78865 v 5.9303 c 5.5738,0.3295 9.24024,1.6877 10.94005,4.1157 1.66028,2.3886 2.51019,7.3279 2.51019,14.8215" />
        <path
           inkscape:connector-curvature="0"
           id="path4521"
           style="fill:#7f5433;fill-opacity:1;fill-rule:nonzero;stroke:none;stroke-width:0.78610319"
           d="m -863.36307,3450.175 v 64.1443 c 0,7.4918 -0.85979,12.4354 -2.5596,14.8215 -1.69981,2.428 -5.31684,3.7886 -10.89063,4.1182 v 5.926 h 24.42981 24.55828 v 0 -89.01 c 0,-7.4936 0.84991,-12.4329 2.54971,-14.8215 1.7097,-2.428 5.32673,-3.7862 10.90052,-4.1157 v -5.9303 h -31.15986 -31.27846 v 5.9303 c 5.57379,0.3295 9.23035,1.6877 10.94005,4.1157 1.65039,2.3886 2.51018,7.3279 2.51018,14.8215 z m 17.69975,145.7045 c 5.57379,0 10.25815,-1.854 14.0926,-5.5595 3.82457,-3.7055 5.7418,-8.2339 5.7418,-13.6271 0,-5.3932 -1.91723,-9.9217 -5.7418,-13.6271 -3.83445,-3.7056 -8.51881,-5.5564 -14.0926,-5.5564 -5.57379,0 -10.25815,1.8508 -14.08272,5.5564 -3.83445,3.7054 -5.75168,8.2339 -5.75168,13.6271 0,5.3932 1.91723,9.9216 5.75168,13.6271 3.82457,3.7055 8.50893,5.5595 14.08272,5.5595" />
        <path
           inkscape:connector-curvature="0"
           id="path4523"
           style="fill:#7f5433;fill-opacity:1;fill-rule:nonzero;stroke:none;stroke-width:0.78610319"
           d="m -750.53332,3421.9315 c -16.29642,0 -29.23276,5.3125 -38.76948,15.9745 -9.58613,10.6645 -14.34955,25.0313 -14.34955,43.1481 0,17.4958 5.02037,32.0709 15.02157,43.6389 10.01108,11.5705 22.562,17.374 37.58356,17.374 16.56326,0 28.81769,-5.4739 36.82261,-16.3847 6.72017,-9.0156 10.59415,-22.357 11.57253,-40.0605 v 0 h -64.56309 v 0 c 0.97838,-13.5026 3.48857,-23.9595 7.44161,-31.3699 5.32673,-9.7166 13.70718,-14.5751 25.16112,-14.5751 4.93143,0 9.61578,1.3994 14.17166,4.1576 4.51636,2.8013 9.02283,7.0834 13.48977,12.8868 l 5.66273,-3.5417 c -5.99874,-10.1267 -13.19328,-17.8673 -21.58362,-23.2192 -8.38045,-5.352 -17.61081,-8.0288 -27.66142,-8.0288 z m 16.68184,72.7497 v 0 2.181 c 0,13.7104 -1.18591,23.4269 -3.52809,29.1083 -2.38171,5.6402 -6.42369,8.481 -12.17537,8.481 -6.03828,0 -10.59416,-2.8408 -13.61824,-8.5641 -3.06361,-5.6815 -4.55588,-14.1618 -4.55588,-25.4028 v -5.8034 0 h 33.87758" />
        <path
           inkscape:connector-curvature="0"
           id="path4525"
           style="fill:#7f5433;fill-opacity:1;fill-rule:nonzero;stroke:none;stroke-width:0.78610319"
           d="m -616.20889,3505.6314 c -2.51019,8.8517 -6.51264,15.7688 -12.08644,20.7518 -5.57379,4.9805 -12.0469,7.4917 -19.44897,7.4917 -4.89189,0 -8.89435,-1.3581 -11.91843,-4.0331 -3.01419,-2.7182 -4.55588,-6.2187 -4.55588,-10.5833 0,-4.0744 1.62075,-7.5748 4.85236,-10.4981 3.23161,-2.8826 9.24024,-6.2167 17.96658,-10.0022 13.87519,-6.0948 23.5305,-12.0251 28.93628,-17.7041 5.40579,-5.6421 8.09386,-12.7236 8.09386,-21.2458 0,-11.3211 -3.70598,-20.5029 -11.11793,-27.4594 -7.36255,-6.9589 -17.14633,-10.4174 -29.28218,-10.4174 -7.14512,0 -15.61452,1.7708 -25.40818,5.3125 -3.48857,1.275 -6.08769,1.727 -7.74797,1.3169 -1.66028,-0.4102 -3.27114,-1.8515 -4.85236,-4.3234 l -1.35392,-2.1816 h -6.17663 0.0494 v 40.8814 0 h 6.96724 c 1.74923,-9.7971 5.92957,-17.7035 12.52127,-23.7145 6.64111,-5.9697 14.42861,-8.9743 23.4119,-8.9743 5.52438,0 10.0012,1.4802 13.36129,4.4065 3.36009,2.9214 5.05989,6.832 5.05989,11.6512 0,4.157 -1.77886,7.8212 -5.35637,10.9497 -3.5775,3.0902 -10.21862,6.6681 -19.96287,10.8695 -13.27234,5.8059 -22.52247,11.4048 -27.66142,16.8805 -5.06978,5.3933 -7.6195,12.1865 -7.6195,20.3786 0,11.0334 3.65657,19.8851 11.01911,26.5945 7.36255,6.7151 17.02774,10.088 28.9857,10.088 6.34463,0.083 13.78624,-1.4407 22.47305,-4.6091 2.54971,-0.9473 4.81283,-1.1556 6.76959,-0.5766 1.95675,0.5328 3.52809,1.8515 4.67447,3.8694 l 0.5139,0.8229 h 5.6232 v 0 -35.9422 0 h -6.73005" />
        <path
           inkscape:connector-curvature="0"
           id="path4527"
           style="fill:#7f5433;fill-opacity:1;fill-rule:nonzero;stroke:none;stroke-width:0.78610319"
           d="m -416.66913,3542.6873 c -3.92339,13.9129 -10.30756,24.9901 -19.20191,33.2215 -8.89435,8.2364 -18.90543,12.3521 -29.96407,12.3521 -8.4694,0 -15.32793,-2.181 -20.5163,-6.5875 -5.19825,-4.3621 -7.78749,-10.1686 -7.78749,-17.4134 0,-6.917 2.67818,-12.8061 8.08397,-17.7034 5.32673,-4.8586 15.19945,-10.2098 29.58853,-16.1796 19.19203,-7.9457 33.06721,-16.3459 41.53661,-25.1976 8.39034,-8.7686 12.60033,-19.1448 12.60033,-31.1255 0,-16.4267 -5.70227,-29.3966 -17.15621,-39.0299 -11.40453,-9.5921 -26.86093,-14.4088 -46.30991,-14.4088 -10.63369,0 -22.85848,2.3862 -36.68425,7.1197 -4.04198,1.4412 -7.06606,1.7714 -8.98329,1.0311 -1.87769,-0.7817 -3.4095,-2.8407 -4.46694,-6.2161 l -0.64237,-2.0591 h -7.87644 0.0494 v 61.2618 0 h 7.49101 c 2.80667,-15.9327 9.02283,-28.7369 18.63861,-38.4115 9.57624,-9.6753 20.8523,-14.5339 33.70958,-14.5339 9.66519,0 17.41315,2.5944 23.32295,7.78 5.91969,5.1881 8.85482,12.0639 8.85482,20.5861 0,6.917 -2.80666,12.8061 -8.46939,17.7035 -5.5738,4.941 -15.87147,10.4981 -30.94245,16.7999 -17.7887,7.4498 -30.64598,15.5617 -38.56195,24.2478 -7.78749,8.6047 -11.70101,19.0616 -11.70101,31.3305 0,14.9879 5.0599,26.8441 15.23899,35.6127 10.12967,8.7692 23.78744,13.1337 41.02271,13.1337 9.07224,0.083 19.57745,-2.1422 31.54529,-6.6269 4.80295,-1.8533 8.38045,-2.4298 10.72263,-1.7314 2.34218,0.6597 4.2594,2.8433 5.7418,6.5463 l 0.85978,2.1835 h 7.36255 v 0 -53.6856 0 h -7.1056" />
        <path
           inkscape:connector-curvature="0"
           id="path4529"
           style="fill:#7f5433;fill-opacity:1;fill-rule:nonzero;stroke:none;stroke-width:0.78610319"
           d="m -327.41928,3421.9315 c -16.56326,0 -30.30997,5.5982 -41.25002,16.8393 -10.93016,11.199 -16.37548,25.2783 -16.37548,42.2833 0,17.4958 5.44532,32.0709 16.37548,43.6389 10.94005,11.5705 24.68676,17.374 41.25002,17.374 16.51384,0 30.26054,-5.8035 41.20059,-17.374 10.94005,-11.568 16.38537,-26.1431 16.38537,-43.6389 0,-17.005 -5.44532,-31.0843 -16.38537,-42.2833 -10.94005,-11.2411 -24.68675,-16.8393 -41.20059,-16.8393 z m 0,7.6161 c 7.53055,0 12.76833,3.7055 15.70346,11.1578 2.89561,7.4523 4.33847,20.9156 4.33847,40.4706 0,20.1734 -1.44286,34.0888 -4.33847,41.7462 -2.93513,7.7011 -8.17291,11.5293 -15.70346,11.5293 -7.57997,0 -12.81775,-3.8282 -15.71335,-11.5293 -2.93514,-7.6574 -4.378,-21.5728 -4.378,-41.7462 0,-19.555 1.44286,-33.0183 4.378,-40.4706 2.8956,-7.4523 8.13338,-11.1578 15.71335,-11.1578" />
        <path
           inkscape:connector-curvature="0"
           id="path4531"
           style="fill:#7f5433;fill-opacity:1;fill-rule:nonzero;stroke:none;stroke-width:0.78610319"
           d="m -209.68776,3528.3179 v 0 -78.1429 c 0,-7.328 1.27486,-12.1859 3.87398,-14.6139 2.54972,-2.3911 8.03456,-3.8324 16.33596,-4.3233 v -5.9303 h -35.0635 -35.16233 v 5.9303 c 5.99875,0.3295 9.92214,1.6877 11.75043,4.1157 1.82828,2.3886 2.7276,7.3279 2.7276,14.8215 v 78.1429 0 h -14.86345 v 10.8671 h 14.86345 v 0 11.8168 c 0,14.739 3.91351,25.8962 11.78995,33.4736 7.82703,7.6155 19.39956,11.4041 34.72749,11.4041 9.78378,0 17.9567,-2.3474 24.46934,-7.0002 6.51264,-4.6535 9.79367,-10.4987 9.79367,-17.4989 0,-4.6504 -1.40334,-8.3979 -4.25941,-11.1554 -2.80666,-2.7601 -6.64111,-4.157 -11.44406,-4.157 -6.64111,0 -11.15747,2.303 -13.57871,6.9145 -2.43112,4.6511 -1.78875,9.7585 1.86782,15.3981 2.08523,3.1289 2.63865,5.5595 1.66028,7.2866 -0.93885,1.7314 -3.36009,2.5937 -7.27361,2.5937 -4.0914,0 -7.10559,-1.3994 -9.16117,-4.157 -2.03582,-2.7601 -3.05373,-6.9177 -3.05373,-12.4741 v -32.4448 0 h 22.16669 v -10.8671 h -22.16669" />
        <path
           inkscape:connector-curvature="0"
           id="path4533"
           style="fill:#7f5433;fill-opacity:1;fill-rule:nonzero;stroke:none;stroke-width:0.78610319"
           d="m -160.19565,3449.6816 v 78.6363 h -13.32176 v 6.5044 c 9.32918,7.9875 16.93879,15.1904 22.85848,21.6559 5.95921,6.5043 12.51138,14.6583 19.66639,24.4548 h 6.34463 v -41.748 0 h 23.57991 v -10.8671 h -23.57991 v 0 -70.5687 c 0,-6.6682 0.72143,-11.2798 2.12476,-13.8735 1.40333,-2.5525 4.00246,-3.83 7.69856,-3.83 2.34218,0 4.7733,1.0724 7.23407,3.1703 2.52006,2.1423 5.03025,5.2712 7.5009,9.3482 l 6.245809,-2.5112 c -3.56762,-8.6885 -8.637399,-15.4811 -15.229099,-20.3391 -6.55217,-4.861 -13.87519,-7.2891 -21.91963,-7.2891 -9.57625,0 -16.85973,2.3474 -21.84057,7.0009 -4.89189,4.5696 -7.36254,11.321 -7.36254,20.2559" />
        <path
           inkscape:connector-curvature="0"
           id="path4535"
           style="fill:#7f5433;fill-opacity:1;fill-rule:nonzero;stroke:none;stroke-width:0.78610319"
           d="m -35.269591,3421.9315 -37.15861,92.3878 c -3.15255,7.6574 -5.70226,12.6798 -7.65902,15.0685 -1.95676,2.4305 -4.51635,3.7055 -7.6689,3.8712 v 5.926 h 28.56074 28.68921 v -5.926 c -5.99874,-0.3296 -9.40824,-1.6902 -10.29768,-4.1182 -0.8499,-2.3861 0.21742,-7.3297 3.32056,-14.8215 l 18.59907,-45.9469 0.0395,-0.042 v 0 l 17.1562107,43.3532 v 0 l -2.8956,8.4415 c -1.8282903,5.1444 -3.6170403,8.5617 -5.3662603,10.2518 -1.7393404,1.6878 -4.5064704,2.6331 -8.3310404,2.882 v 5.926 H 11.8902 42.0618 v -5.926 c -6.29522,-0.3295 -10.08026,-1.6901 -11.365,-4.1181 -1.22544,-2.3862 -0.72143,-7.3298 1.53181,-14.8215 l 12.77821,-43.8878 -0.0494,-0.247 v 0 l 14.42861,38.2457 c 3.92339,9.7997 5.36625,16.2628 4.34834,19.3918 -0.97837,3.1315 -4.98083,4.9411 -11.96784,5.4369 v 5.926 H 69.3477 86.92886 v -5.926 c -3.49845,-0.1656 -6.04816,-1.0724 -7.70844,-2.7601 -1.66028,-1.6876 -3.52809,-5.1461 -5.61332,-10.3737 l -37.80098,-98.1937 h -3.36009 -3.36008 l -26.3075103,76.741 v 0 0 l -31.2784407,-76.741 h -3.4095 -3.36009" />
        <path
           inkscape:connector-curvature="0"
           id="path4537"
           style="fill:#7f5433;fill-opacity:1;fill-rule:nonzero;stroke:none;stroke-width:0.78610319"
           d="m 125.1054,3421.9315 c -7.99503,0 -14.64603,2.5525 -19.96287,7.6599 -5.31685,5.1024 -7.99503,11.5267 -7.99503,19.2254 0,8.2758 3.56762,15.523 10.6831,21.656 7.10559,6.1748 18.08517,11.568 32.97826,16.2215 l 24.81524,7.7399 v 0 17.7428 c 0,7.7825 -1.74923,13.4221 -5.18837,16.8813 -3.44903,3.4585 -9.02283,5.1874 -16.77079,5.1874 -6.08769,0 -10.5151,-1.5213 -13.28223,-4.5284 -2.80666,-3.0064 -2.63866,-6.1748 0.42495,-9.4695 5.32673,-5.6427 6.64112,-11.2823 3.91352,-17.0032 -2.67819,-5.7227 -8.04445,-8.5634 -15.99995,-8.5634 -5.40578,0 -9.4873,1.3994 -12.30385,4.2402 -2.75724,2.7994 -4.16057,6.9177 -4.16057,12.3915 0,9.0181 4.41752,16.3872 13.23281,22.1512 8.8054,5.7209 20.13087,8.6029 34.00606,8.6029 16.55337,0 29.24264,-3.0458 38.04804,-9.1813 8.81529,-6.0923 13.2427,-14.8609 13.2427,-26.265 v -61.4262 c 0,-2.882 0.38542,-4.8605 1.10685,-5.9717 0.76096,-1.0698 2.12476,-1.6051 4.13093,-1.6051 0.92897,0 1.77887,0.247 2.54972,0.7816 0.81037,0.5353 1.78875,1.4413 2.93513,2.7188 l 3.87398,-5.0662 c -3.32055,-4.1157 -7.6689,-7.491 -12.97586,-10.2099 -5.32673,-2.6743 -10.25815,-4.0324 -14.81403,-4.0324 -7.66891,0 -13.2427,1.9346 -16.73126,5.8034 -2.34218,2.5524 -3.96293,6.2992 -4.85236,11.199 v 0 c -4.76342,-4.3233 -9.61578,-7.7818 -14.59662,-10.3755 -8.30139,-4.3234 -17.10679,-6.505 -26.3075,-6.505 z m 40.5187,28.1215 v 36.0647 l -3.36009,-1.1118 c -9.66519,-3.0483 -16.81032,-6.917 -21.49468,-11.6093 -4.63494,-4.7359 -6.97712,-10.4981 -6.97712,-17.3351 0,-5.2268 1.14638,-9.3451 3.43915,-12.3496 2.26312,-3.0065 5.4552,-4.5284 9.53672,-4.5284 3.48856,0 6.819,1.0286 10.0012,3.129 2.55959,1.8515 5.54414,4.4452 8.85482,7.7405" />
        <path
           inkscape:connector-curvature="0"
           id="path4539"
           style="fill:#7f5433;fill-opacity:1;fill-rule:nonzero;stroke:none;stroke-width:0.78610319"
           d="m 239.29895,3450.175 v 64.1443 c 0,7.4918 -0.84991,12.4354 -2.54971,14.8215 -1.69981,2.428 -5.31685,3.7886 -10.90052,4.1182 v 5.926 h 24.31122 24.30133 v 0 -20.0071 0 0 c 3.23162,4.5697 6.64112,8.6029 10.20874,12.0195 7.57996,7.2472 15.36746,10.8696 23.32296,10.8696 6.38416,0 11.58241,-1.7709 15.4564,-5.3513 3.91351,-3.5812 5.87027,-8.2759 5.87027,-14.0793 0,-5.0636 -1.49228,-9.0568 -4.46694,-11.9807 -3.02408,-2.9239 -7.01665,-4.4065 -12.12596,-4.4065 -2.90549,0 -5.36626,0.5766 -7.32302,1.6903 -2.00617,1.1111 -4.29893,3.2508 -6.85853,6.3798 -1.99628,2.428 -3.61703,4.0745 -4.89189,5.0637 -1.23533,0.948 -2.38171,1.4413 -3.48856,1.4413 -3.15255,0 -6.29522,-1.8102 -9.44778,-5.3932 -2.25323,-2.5944 -3.79492,-5.3107 -4.64482,-8.1513 -0.80049,-2.8427 -1.23533,-6.712 -1.23533,-11.6506 v -45.4542 c 0,-7.328 1.1958,-12.1859 3.57751,-14.6139 2.34218,-2.3911 7.36254,-3.8324 15.03145,-4.3233 v -5.9303 h -33.79853 -33.79852 v 5.9303 c 5.58367,0.3295 9.24024,1.6877 10.94005,4.1157 1.66027,2.3886 2.51018,7.3279 2.51018,14.8215" />
        <path
           inkscape:connector-curvature="0"
           id="path4541"
           style="fill:#7f5433;fill-opacity:1;fill-rule:nonzero;stroke:none;stroke-width:0.78610319"
           d="m 391.29348,3421.9315 c -16.3063,0 -29.24264,5.3125 -38.77936,15.9745 -9.57625,10.6645 -14.33966,25.0313 -14.33966,43.1481 0,17.4958 5.02036,32.0709 15.02156,43.6389 10.0012,11.5705 22.562,17.374 37.58357,17.374 16.55337,0 28.81768,-5.4739 36.81272,-16.3847 6.73005,-9.0156 10.60403,-22.357 11.58241,-40.0605 v 0 h -64.56308 v 0 c 0.97837,-13.5026 3.48856,-23.9595 7.4416,-31.3699 5.32673,-9.7166 13.70718,-14.5751 25.16112,-14.5751 4.93143,0 9.61578,1.3994 14.17167,4.1576 4.50647,2.8013 9.02282,7.0834 13.48976,12.8868 l 5.66273,-3.5417 c -5.99874,-10.1267 -13.20316,-17.8673 -21.58362,-23.2192 -8.38045,-5.352 -17.62069,-8.0288 -27.66142,-8.0288 z m 16.68185,72.7497 v 0 2.181 c 0,13.7104 -1.1958,23.4269 -3.5281,29.1083 -2.39159,5.6402 -6.43357,8.481 -12.17537,8.481 -6.04816,0 -10.60404,-2.8408 -13.61824,-8.5641 -3.06361,-5.6815 -4.55588,-14.1618 -4.55588,-25.4028 v -5.8034 0 h 33.87759" />
        <path
           inkscape:connector-curvature="0"
           id="path4543"
           style="fill:#7f5433;fill-opacity:1;fill-rule:nonzero;stroke:none;stroke-width:0.78610319"
           d="m -1826.8522,3319.4093 v 0 -78.1426 c 0,-7.3277 1.2778,-12.186 3.872,-14.6139 2.5557,-2.3889 8.0454,-3.83 16.3488,-4.3234 v -5.9281 h -35.0753 -35.1574 v 5.9281 c 5.9997,0.3298 9.9182,1.6878 11.7474,4.1182 1.8303,2.3864 2.7257,7.3277 2.7257,14.8191 v 78.1426 0 h -14.8546 v 10.8696 h 14.8546 v 0 11.817 c 0,14.7388 3.9145,25.8966 11.7899,33.4734 7.829,7.6155 19.4055,11.4017 34.7275,11.4017 9.7937,0 17.9626,-2.3448 24.4753,-6.9977 6.5126,-4.6534 9.7897,-10.4982 9.7897,-17.499 0,-4.6528 -1.4053,-8.3971 -4.2535,-11.1553 -2.8106,-2.76 -6.6441,-4.1595 -11.45,-4.1595 -6.6401,0 -11.1535,2.3061 -13.5777,6.9177 -2.4282,4.6503 -1.7868,9.7577 1.8727,15.3979 2.0843,3.1266 2.6367,5.5564 1.6603,7.2861 -0.9388,1.7295 -3.363,2.5937 -7.2815,2.5937 -4.0835,0 -7.1066,-1.3995 -9.1483,-4.1595 -2.0427,-2.7576 -3.0656,-6.9152 -3.0656,-12.4716 v -32.4449 0 h 22.1736 v -10.8696 h -22.1736" />
        <path
           inkscape:connector-curvature="0"
           id="path4545"
           style="fill:#7f5433;fill-opacity:1;fill-rule:nonzero;stroke:none;stroke-width:0.78610319"
           d="m -1731.8517,3213.0233 c -16.5573,0 -30.304,5.6007 -41.245,16.8391 -10.9361,11.1991 -16.3834,25.2806 -16.3834,42.2834 0,17.4988 5.4473,32.0707 16.3834,43.6412 10.941,11.568 24.6877,17.3739 41.245,17.3739 16.5149,0 30.2655,-5.8059 41.2016,-17.3739 10.9371,-11.5705 16.3874,-26.1424 16.3874,-43.6412 0,-17.0028 -5.4503,-31.0843 -16.3874,-42.2834 -10.9361,-11.2384 -24.6867,-16.8391 -41.2016,-16.8391 z m 0,7.6183 c 7.5355,0 12.7703,3.7053 15.7035,11.1577 2.8956,7.4499 4.3434,20.9157 4.3434,40.471 0,20.1731 -1.4478,34.0885 -4.3434,41.7458 -2.9332,7.6994 -8.168,11.5293 -15.7035,11.5293 -7.5779,0 -12.8128,-3.8299 -15.7084,-11.5293 -2.9331,-7.6573 -4.377,-21.5727 -4.377,-41.7458 0,-19.5553 1.4439,-33.0211 4.377,-40.471 2.8956,-7.4524 8.1305,-11.1577 15.7084,-11.1577" />
        <path
           inkscape:connector-curvature="0"
           id="path4547"
           style="fill:#7f5433;fill-opacity:1;fill-rule:nonzero;stroke:none;stroke-width:0.78610319"
           d="m -1647.3247,3241.2667 v 64.1466 c 0,7.4917 -0.8489,12.4329 -2.5517,14.8221 -1.7028,2.4274 -5.3198,3.7855 -10.8976,4.1157 v 5.9278 h 24.3043 24.3014 v 0 -20.007 0 0 c 3.2355,4.5678 6.6441,8.6029 10.2186,12.0201 7.574,7.2466 15.3645,10.8689 23.3249,10.8689 6.3812,0 11.5736,-1.7708 15.4495,-5.3513 3.9135,-3.581 5.8713,-8.2758 5.8713,-14.0817 0,-5.063 -1.4903,-9.0568 -4.467,-11.9782 -3.026,-2.9264 -7.0216,-4.4065 -12.1289,-4.4065 -2.8996,0 -5.3663,0.5741 -7.323,1.6877 -2.0002,1.1118 -4.297,3.2534 -6.8526,6.3824 -1.9993,2.4281 -3.617,4.0745 -4.8949,5.0637 -1.2353,0.9454 -2.3817,1.4413 -3.4895,1.4413 -3.1506,0 -6.3002,-1.8127 -9.4508,-5.3932 -2.2542,-2.5944 -3.7909,-5.3126 -4.6359,-8.1533 -0.8104,-2.8407 -1.2393,-6.7101 -1.2393,-11.6511 v -45.454 c 0,-7.3277 1.1968,-12.186 3.5746,-14.6139 2.3431,-2.3889 7.3655,-3.83 15.0285,-4.3234 v -5.9281 h -33.7976 -33.7936 v 5.9281 c 5.5778,0.3298 9.2373,1.6878 10.9401,4.1182 1.6603,2.3864 2.5092,7.3277 2.5092,14.8191" />
        <path
           inkscape:connector-curvature="0"
           id="path4549"
           style="fill:#7f5433;fill-opacity:1;fill-rule:nonzero;stroke:none;stroke-width:0.78610319"
           d="m -1356.282,3211.7067 c -26.432,0 -48.0966,8.0287 -64.9513,24.1253 -16.8963,16.0989 -25.3242,36.8095 -25.3242,62.129 0,26.1431 8.4279,47.5108 25.3242,64.1838 16.8547,16.6342 38.5193,24.9507 64.9513,24.9507 26.5131,0 48.2242,-8.3165 65.079,-24.9507 16.8963,-16.673 25.3242,-38.0407 25.3242,-64.1838 0,-25.3195 -8.4279,-46.0301 -25.3242,-62.129 -16.8548,-16.0966 -38.5659,-24.1253 -65.079,-24.1253 z m 0,8.1924 c 15.0246,0 26.3471,6.5485 33.9211,19.6798 7.5315,13.0921 11.3225,32.6083 11.3225,58.5046 0,26.7609 -3.791,46.9362 -11.3225,60.4802 -7.574,13.5446 -18.8965,20.3397 -33.9211,20.3397 -14.9395,0 -26.2195,-6.7951 -33.7936,-20.3397 -7.5314,-13.544 -11.3224,-33.7193 -11.3224,-60.4802 0,-25.8963 3.791,-45.4125 11.3224,-58.5046 7.5741,-13.1313 18.8541,-19.6798 33.7936,-19.6798" />
        <path
           inkscape:connector-curvature="0"
           id="path4551"
           style="fill:#7f5433;fill-opacity:1;fill-rule:nonzero;stroke:none;stroke-width:0.78610319"
           d="m -1202.8851,3319.4093 v 0 -78.1426 c 0,-7.3277 1.2779,-12.186 3.872,-14.6139 2.5557,-2.3889 8.0415,-3.83 16.3449,-4.3234 v -5.9281 h -35.0714 -35.1574 v 5.9281 c 5.9997,0.3298 9.9182,1.6878 11.7435,4.1182 1.8342,2.3864 2.7296,7.3277 2.7296,14.8191 v 78.1426 0 h -14.8586 v 10.8696 h 14.8586 v 0 11.817 c 0,14.7388 3.9145,25.8966 11.7899,33.4734 7.828,7.6155 19.4055,11.4017 34.7275,11.4017 9.7897,0 17.9627,-2.3448 24.4713,-6.9977 6.5166,-4.6534 9.7937,-10.4982 9.7937,-17.499 0,-4.6528 -1.4053,-8.3971 -4.2574,-11.1553 -2.8067,-2.76 -6.6401,-4.1595 -11.447,-4.1595 -6.6392,0 -11.1526,2.3061 -13.5807,6.9177 -2.4242,4.6503 -1.7868,9.7577 1.8767,15.3979 2.0842,3.1266 2.6367,5.5564 1.6563,7.2861 -0.9349,1.7295 -3.363,2.5937 -7.2775,2.5937 -4.0875,0 -7.1066,-1.3995 -9.1523,-4.1595 -2.0428,-2.7576 -3.0617,-6.9152 -3.0617,-12.4716 v -32.4449 0 h 22.1736 v -10.8696 h -22.1736" />
        <path
           inkscape:connector-curvature="0"
           id="path4553"
           style="fill:#7f5433;fill-opacity:1;fill-rule:nonzero;stroke:none;stroke-width:0.78610319"
           d="m -1117.8442,3319.4093 v 0 -78.1426 c 0,-7.3277 1.2778,-12.186 3.872,-14.6139 2.5556,-2.3889 8.0444,-3.83 16.3448,-4.3234 v -5.9281 h -35.0724 -35.1564 v 5.9281 c 5.9988,0.3298 9.9172,1.6878 11.7475,4.1182 1.8293,2.3864 2.7256,7.3277 2.7256,14.8191 v 78.1426 0 h -14.8585 v 10.8696 h 14.8585 v 0 11.817 c 0,14.7388 3.9145,25.8966 11.789,33.4734 7.829,7.6155 19.4065,11.4017 34.7285,11.4017 9.7897,0 17.9626,-2.3448 24.4752,-6.9977 6.5117,-4.6534 9.7898,-10.4982 9.7898,-17.499 0,-4.6528 -1.4054,-8.3971 -4.2545,-11.1553 -2.8106,-2.76 -6.6431,-4.1595 -11.45,-4.1595 -6.6391,0 -11.1525,2.3061 -13.5807,6.9177 -2.4242,4.6503 -1.7877,9.7577 1.8767,15.3979 2.0843,3.1266 2.6357,5.5564 1.6554,7.2861 -0.9339,1.7295 -3.3581,2.5937 -7.2766,2.5937 -4.0884,0 -7.1066,-1.3995 -9.1533,-4.1595 -2.0417,-2.7576 -3.0606,-6.9152 -3.0606,-12.4716 v -32.4449 0 h 22.1736 v -10.8696 h -22.1736" />
        <path
           inkscape:connector-curvature="0"
           id="path4555"
           style="fill:#7f5433;fill-opacity:1;fill-rule:nonzero;stroke:none;stroke-width:0.78610319"
           d="m -1069.2386,3241.2667 v 64.1466 c 0,7.4917 -0.8529,12.4329 -2.5556,14.8221 -1.7018,2.4274 -5.3198,3.7855 -10.8936,4.1157 v 5.9278 h 24.4288 24.5553 v 0 -89.0122 c 0,-7.4914 0.8539,-12.4327 2.5557,-14.8191 1.7027,-2.4304 5.3198,-3.7884 10.8985,-4.1182 v -5.9281 h -31.1579 -31.2804 v 5.9281 c 5.5738,0.3298 9.2303,1.6878 10.9361,4.1182 1.6602,2.3864 2.5131,7.3277 2.5131,14.8191 z m 17.7077,145.7043 c 5.5708,0 10.2532,-1.854 14.0827,-5.557 3.8335,-3.7074 5.7487,-8.2364 5.7487,-13.6272 0,-5.3931 -1.9152,-9.9215 -5.7487,-13.629 -3.8295,-3.703 -8.5119,-5.557 -14.0827,-5.557 -5.5778,0 -10.2611,1.854 -14.0946,5.557 -3.8295,3.7075 -5.7438,8.2359 -5.7438,13.629 0,5.3908 1.9143,9.9198 5.7438,13.6272 3.8335,3.703 8.5168,5.557 14.0946,5.557" />
        <path
           inkscape:connector-curvature="0"
           id="path4557"
           style="fill:#7f5433;fill-opacity:1;fill-rule:nonzero;stroke:none;stroke-width:0.78610319"
           d="m -906.18442,3238.5921 c -7.14512,-8.6858 -14.76462,-15.1098 -22.80906,-19.3085 -8.04444,-4.1598 -16.77079,-6.2603 -26.17903,-6.2603 -15.61453,0 -28.60027,5.6007 -38.89795,16.8391 -10.30564,11.1991 -15.45144,25.2806 -15.45144,42.2834 0,17.4988 5.6983,32.0707 17.15125,43.6412 11.40453,11.568 25.75408,17.3739 42.93993,17.3739 10.98947,0 20.39771,-2.6331 28.3038,-7.9037 7.87644,-5.2713 11.83936,-11.5681 11.83936,-18.8565 0,-5.1469 -1.58121,-9.1407 -4.68435,-11.8982 -3.10314,-2.7601 -7.57997,-4.157 -13.4107,-4.157 -5.0599,0 -8.67694,1.7684 -10.89064,5.31 -2.2137,3.5417 -3.23161,9.3038 -3.06361,17.3327 0.0791,4.2814 -0.72143,7.4523 -2.43112,9.4695 -1.69981,2.0566 -4.378,3.0877 -8.04445,3.0877 -6.97712,0 -12.29396,-3.5004 -15.95053,-10.54 -3.62691,-7.0396 -5.4552,-17.2933 -5.4552,-30.7153 0,-16.3847 3.19209,-29.6429 9.61578,-39.7699 6.43358,-10.1294 14.90298,-15.1928 25.36866,-15.1928 4.98084,0 9.61578,1.0698 14.00366,3.2535 4.33846,2.1812 8.76587,5.6424 13.24269,10.4176 l 4.80295,-4.4064" />
        <path
           inkscape:connector-curvature="0"
           id="path4559"
           style="fill:#7f5433;fill-opacity:1;fill-rule:nonzero;stroke:none;stroke-width:0.78610319"
           d="m -884.94669,3241.2667 v 64.1466 c 0,7.4917 -0.8499,12.4329 -2.54971,14.8221 -1.69981,2.4274 -5.32673,3.7855 -10.90052,4.1157 v 5.9278 h 24.43969 24.5484 v 0 -89.0122 c 0,-7.4914 0.84991,-12.4327 2.5596,-14.8191 1.69981,-2.4304 5.31684,-3.7884 10.89063,-4.1182 v -5.9281 h -31.14998 -31.28834 v 5.9281 c 5.57379,0.3298 9.24024,1.6878 10.94005,4.1182 1.66028,2.3864 2.51018,7.3277 2.51018,14.8191 z m 17.70964,145.7043 c 5.57379,0 10.25814,-1.854 14.0926,-5.557 3.82457,-3.7074 5.74179,-8.2364 5.74179,-13.6272 0,-5.3931 -1.91722,-9.9215 -5.74179,-13.629 -3.83446,-3.703 -8.51881,-5.557 -14.0926,-5.557 -5.5738,0 -10.25815,1.854 -14.09261,5.557 -3.82457,3.7075 -5.74179,8.2359 -5.74179,13.629 0,5.3908 1.91722,9.9198 5.74179,13.6272 3.83446,3.703 8.51881,5.557 14.09261,5.557" />
        <path
           inkscape:connector-curvature="0"
           id="path4561"
           style="fill:#7f5433;fill-opacity:1;fill-rule:nonzero;stroke:none;stroke-width:0.78610319"
           d="m -797.26818,3213.0233 c -8.00491,0 -14.63614,2.5524 -19.96287,7.6598 -5.31684,5.105 -7.99503,11.5266 -7.99503,19.2255 0,8.2779 3.56762,15.5226 10.67322,21.6584 7.11547,6.1747 18.09505,11.5656 32.98815,16.2187 l 24.81523,7.7406 v 0 17.7454 c 0,7.7818 -1.73934,13.4214 -5.18837,16.8805 -3.44903,3.456 -9.02282,5.1881 -16.77079,5.1881 -6.08769,0 -10.5151,-1.5245 -13.28223,-4.5315 -2.80666,-3.004 -2.63865,-6.1749 0.42496,-9.4671 5.31684,-5.6426 6.64111,-11.2822 3.92339,-17.003 -2.68807,-5.7253 -8.04444,-8.5661 -16.00983,-8.5661 -5.40578,0 -9.4873,1.4001 -12.29396,4.2427 -2.76713,2.797 -4.18035,6.9152 -4.18035,12.3916 0,9.0155 4.42741,16.3872 13.2427,22.1493 8.80541,5.7227 20.13088,8.6047 34.00606,8.6047 16.55337,0 29.24264,-3.0483 38.04805,-9.1812 8.81528,-6.0916 13.24269,-14.8634 13.24269,-26.2676 v -61.4258 c 0,-2.8823 0.38542,-4.8583 1.10685,-5.9697 0.76097,-1.0698 2.12477,-1.6047 4.12105,-1.6047 0.93885,0 1.78875,0.2466 2.5596,0.7816 0.81037,0.535 1.77887,1.4411 2.93513,2.7162 l 3.87399,-5.0636 c -3.32056,-4.1157 -7.65903,-7.4937 -12.97587,-10.2099 -5.32673,-2.6771 -10.26803,-4.0352 -14.81403,-4.0352 -7.65902,0 -13.2427,1.9346 -16.73126,5.8061 -2.34218,2.5524 -3.95304,6.2994 -4.85236,11.1992 v 0 c -4.7733,-4.3233 -9.62566,-7.782 -14.59661,-10.3761 -8.3014,-4.3233 -17.1068,-6.5069 -26.30751,-6.5069 z m 40.5187,28.1213 v 36.0646 l -3.36009,-1.1111 c -9.66519,-3.0462 -16.81032,-6.9152 -21.49467,-11.6098 -4.64483,-4.7338 -6.97713,-10.4982 -6.97713,-17.3326 0,-5.2296 1.14639,-9.3453 3.44903,-12.3496 2.25324,-3.0068 5.44532,-4.531 9.52684,-4.531 3.49844,0 6.80912,1.0283 10.01108,3.1289 2.54972,1.854 5.52438,4.448 8.84494,7.7406" />
        <path
           inkscape:connector-curvature="0"
           id="path4563"
           style="fill:#7f5433;fill-opacity:1;fill-rule:nonzero;stroke:none;stroke-width:0.78610319"
           d="m -686.30624,3241.2667 v 117.2144 c 0,7.4937 -0.84991,12.4347 -2.54972,14.8215 -1.6998,2.4281 -5.32672,3.7881 -10.90051,4.1182 v 5.9279 h 24.42981 24.55828 v 0 -142.082 c 0,-7.4914 0.84991,-12.4327 2.5596,-14.8191 1.69981,-2.4304 5.31684,-3.7884 10.89063,-4.1182 v -5.9281 h -31.14998 -31.28834 v 5.9281 c 5.57379,0.3298 9.24024,1.6878 10.94004,4.1182 1.66028,2.3864 2.51019,7.3277 2.51019,14.8191" />
        <path
           inkscape:connector-curvature="0"
           id="path4565"
           style="fill:#7f5433;fill-opacity:1;fill-rule:nonzero;stroke:none;stroke-width:0.78610319"
           d="m -416.92608,3333.7794 c -3.91351,13.9153 -10.29768,24.99 -19.20191,33.2233 -8.89435,8.2365 -18.89555,12.3522 -29.95419,12.3522 -8.46939,0 -15.32792,-2.1835 -20.52618,-6.5876 -5.18837,-4.3645 -7.77761,-10.1679 -7.77761,-17.4151 0,-6.9152 2.67819,-12.8043 8.07409,-17.7041 5.32673,-4.858 15.19946,-10.2099 29.58854,-16.1796 19.19202,-7.9457 33.06721,-16.3453 41.5366,-25.1976 8.39034,-8.7686 12.60033,-19.1423 12.60033,-31.1232 0,-16.4263 -5.70227,-29.3963 -17.15621,-39.0298 -11.39465,-9.592 -26.85105,-14.4112 -46.30991,-14.4112 -10.63369,0 -22.84859,2.3888 -36.68424,7.1225 -4.04199,1.4412 -7.05619,1.7709 -8.97341,1.0308 -1.8777,-0.7816 -3.4095,-2.8432 -4.47683,-6.2164 l -0.63248,-2.0591 h -7.87644 0.0395 v 61.2622 0 h 7.49102 c 2.81654,-15.9329 9.02282,-28.7369 18.64848,-38.4118 9.57625,-9.6776 20.85231,-14.5358 33.6997,-14.5358 9.66519,0 17.41316,2.5964 23.33284,7.782 5.9098,5.188 8.85482,12.0638 8.85482,20.5861 0,6.9173 -2.81655,12.8039 -8.4694,17.7037 -5.58367,4.9389 -15.88135,10.498 -30.95233,16.7979 -17.7887,7.4522 -30.63609,15.5611 -38.56194,24.2497 -7.77762,8.6028 -11.70101,19.0616 -11.70101,31.3306 0,14.9853 5.06978,26.8415 15.23898,35.6126 10.12968,8.7692 23.78744,13.1338 41.02271,13.1338 9.07224,0.083 19.58733,-2.1417 31.54529,-6.6289 4.81283,-1.8539 8.39034,-2.4305 10.72263,-1.7295 2.34218,0.6597 4.25941,2.8407 5.75168,6.5462 l 0.84991,2.1811 h 7.36254 v 0 -53.685 0 h -7.1056" />
        <path
           inkscape:connector-curvature="0"
           id="path4567"
           style="fill:#7f5433;fill-opacity:1;fill-rule:nonzero;stroke:none;stroke-width:0.78610319"
           d="m -373.17577,3240.7757 v 78.6336 h -13.32175 v 6.505 c 9.3193,7.987 16.93879,15.1923 22.85847,21.6579 5.95922,6.505 12.51139,14.6557 19.65651,24.4555 h 6.34464 v -41.7488 0 h 23.5799 v -10.8696 h -23.5799 v 0 -70.5657 c 0,-6.6707 0.73131,-11.2798 2.12476,-13.8739 1.41321,-2.5549 4.00246,-3.8299 7.70844,-3.8299 2.34217,0 4.7733,1.0699 7.23407,3.1704 2.51018,2.1422 5.02036,5.2687 7.49101,9.3454 l 6.25569,-2.511 c -3.5775,-8.6859 -8.6374,-15.4811 -15.23898,-20.3393 -6.54229,-4.8584 -13.87518,-7.2863 -21.91963,-7.2863 -9.57625,0 -16.84985,2.3473 -21.83068,7.0005 -4.89189,4.5676 -7.36255,11.3188 -7.36255,20.2562" />
        <path
           inkscape:connector-curvature="0"
           id="path4569"
           style="fill:#7f5433;fill-opacity:1;fill-rule:nonzero;stroke:none;stroke-width:0.78610319"
           d="m -272.30397,3213.0233 c -7.99504,0 -14.63615,2.5524 -19.96287,7.6598 -5.31685,5.105 -7.99504,11.5266 -7.99504,19.2255 0,8.2779 3.57751,15.5226 10.6831,21.6584 7.1056,6.1747 18.08518,11.5656 32.98815,16.2187 l 24.81524,7.7406 v 0 17.7454 c 0,7.7818 -1.74922,13.4214 -5.19826,16.8805 -3.44903,3.456 -9.02282,5.1881 -16.77078,5.1881 -6.08769,0 -10.5151,-1.5245 -13.27235,-4.5315 -2.81654,-3.004 -2.64854,-6.1749 0.42495,-9.4671 5.31685,-5.6426 6.63123,-11.2822 3.91352,-17.003 -2.68807,-5.7253 -8.04445,-8.5661 -16.00983,-8.5661 -5.40579,0 -9.4873,1.4001 -12.29397,4.2427 -2.76713,2.797 -4.17046,6.9152 -4.17046,12.3916 0,9.0155 4.41753,16.3872 13.23282,22.1493 8.81528,5.7227 20.13087,8.6047 34.00606,8.6047 16.56325,0 29.24264,-3.0483 38.05793,-9.1812 8.8054,-6.0916 13.23281,-14.8634 13.23281,-26.2676 v -61.4258 c 0,-2.8823 0.38542,-4.8583 1.10685,-5.9697 0.76096,-1.0698 2.12476,-1.6047 4.13093,-1.6047 0.92897,0 1.78875,0.2466 2.54972,0.7816 0.81037,0.535 1.78875,1.4411 2.93513,2.7162 l 3.87398,-5.0636 c -3.32055,-4.1157 -7.65902,-7.4937 -12.97586,-10.2099 -5.32673,-2.6771 -10.25815,-4.0352 -14.81403,-4.0352 -7.66891,0 -13.2427,1.9346 -16.73126,5.8061 -2.34218,2.5524 -3.96293,6.2994 -4.85236,11.1992 v 0 c -4.76342,-4.3233 -9.61578,-7.782 -14.59662,-10.3761 -8.30139,-4.3233 -17.10679,-6.5069 -26.3075,-6.5069 z m 40.52858,28.1213 v 36.0646 l -3.36997,-1.1111 c -9.65531,-3.0462 -16.81032,-6.9152 -21.49468,-11.6098 -4.63494,-4.7338 -6.97712,-10.4982 -6.97712,-17.3326 0,-5.2296 1.14638,-9.3453 3.44903,-12.3496 2.25324,-3.0068 5.44532,-4.531 9.52684,-4.531 3.48856,0 6.819,1.0283 10.0012,3.1289 2.55959,1.854 5.54414,4.448 8.8647,7.7406" />
        <path
           inkscape:connector-curvature="0"
           id="path4571"
           style="fill:#7f5433;fill-opacity:1;fill-rule:nonzero;stroke:none;stroke-width:0.78610319"
           d="m -160.44272,3240.7757 v 78.6336 h -13.33164 v 6.505 c 9.32919,7.987 16.94868,15.1923 22.85848,21.6579 5.95921,6.505 12.51138,14.6557 19.66639,24.4555 h 6.34464 v -41.7488 0 h 23.5799 v -10.8696 h -23.5799 v 0 -70.5657 c 0,-6.6707 0.72143,-11.2798 2.12476,-13.8739 1.40333,-2.5549 4.00245,-3.8299 7.70843,-3.8299 2.34218,0 4.76342,1.0699 7.23407,3.1704 2.51019,2.1422 5.02037,5.2687 7.49102,9.3454 l 6.255689,-2.511 c -3.5775,-8.6859 -8.647279,-15.4811 -15.238979,-20.3393 -6.55217,-4.8584 -13.87519,-7.2863 -21.91963,-7.2863 -9.57625,0 -16.85973,2.3473 -21.84057,7.0005 -4.89189,4.5676 -7.35266,11.3188 -7.35266,20.2562" />
        <path
           inkscape:connector-curvature="0"
           id="path4573"
           style="fill:#7f5433;fill-opacity:1;fill-rule:nonzero;stroke:none;stroke-width:0.78610319"
           d="m -76.302181,3241.2667 v 64.1466 c 0,7.4917 -0.8499,12.4329 -2.54971,14.8221 -1.69981,2.4274 -5.32673,3.7855 -10.90052,4.1157 v 5.9278 h 24.42981 24.55828 v 0 -89.0122 c 0,-7.4914 0.84991,-12.4327 2.5596,-14.8191 1.69981,-2.4304 5.31684,-3.7884 10.89063,-4.1182 v -5.9281 h -31.14998 -31.28834 v 5.9281 c 5.57379,0.3298 9.23036,1.6878 10.94005,4.1182 1.66028,2.3864 2.51018,7.3277 2.51018,14.8191 z m 17.70964,145.7043 c 5.57379,0 10.25814,-1.854 14.08271,-5.557 3.83446,-3.7074 5.75168,-8.2364 5.75168,-13.6272 0,-5.3931 -1.91722,-9.9215 -5.75168,-13.629 -3.82457,-3.703 -8.50892,-5.557 -14.08271,-5.557 -5.5738,0 -10.25815,1.854 -14.09261,5.557 -3.83445,3.7075 -5.74179,8.2359 -5.74179,13.629 0,5.3908 1.90734,9.9198 5.74179,13.6272 3.83446,3.703 8.51881,5.557 14.09261,5.557" />
        <path
           inkscape:connector-curvature="0"
           id="path4575"
           style="fill:#7f5433;fill-opacity:1;fill-rule:nonzero;stroke:none;stroke-width:0.78610319"
           d="m 57.51823,3296.7254 c -2.51018,8.8518 -6.51264,15.7694 -12.08643,20.7493 -5.57379,4.983 -12.0469,7.4942 -19.44897,7.4942 -4.90178,0 -8.89435,-1.3607 -11.91843,-4.0351 -3.02408,-2.7163 -4.5558803,-6.2166 -4.5558803,-10.5812 0,-4.0745 1.6108603,-7.5768 4.8523603,-10.4982 3.23161,-2.8826 9.24024,-6.2167 17.9567,-10.0047 13.87518,-6.0942 23.54037,-12.0227 28.94616,-17.7039 5.40579,-5.64 8.08398,-12.721 8.08398,-21.2431 0,-11.3238 -3.70598,-20.5055 -11.10806,-27.462 -7.36254,-6.9588 -17.15621,-10.4174 -29.28217,-10.4174 -7.15501,0 -15.61452,1.7708 -25.4081903,5.3126 -3.48856003,1.2774 -6.08768,1.7293 -7.74796,1.3165 -1.6602803,-0.4104 -3.2810303,-1.8515 -4.8523603,-4.3209 l -1.3638004,-2.1837 h -6.16675 0.0395 v 40.8838 0 h 6.9771204 c 1.74922,-9.7996 5.9196803,-17.7038 12.5212703,-23.715 6.63123,-5.9697 14.4286103,-8.9764 23.4020203,-8.9764 5.53426,0 10.01108,1.4826 13.37117,4.4064 3.36008,2.9238 5.05989,6.8343 5.05989,11.6511 0,4.1597 -1.78875,7.8235 -5.35637,10.9524 -3.57751,3.0875 -10.21862,6.6683 -19.96287,10.8695 -13.2822303,5.8035 -22.5224703,11.4044 -27.6713106,16.8785 -5.0599004,5.395 -7.6194904,12.1857 -7.6194904,20.3778 0,11.0359 3.66645,19.8877 11.0289907,26.5977 7.36254,6.712 17.0277403,10.0873 28.9856903,10.0873 6.34464,0.083 13.78624,-1.4407 22.47306,-4.6115 2.54971,-0.9473 4.80295,-1.1525 6.7597,-0.574 1.96664,0.5327 3.53798,1.8515 4.68436,3.8693 l 0.5139,0.8204 h 5.61332 v 0 -35.9397 0 H 57.5182" />
        <path
           inkscape:connector-curvature="0"
           id="path4577"
           style="fill:#7f5433;fill-opacity:1;fill-rule:nonzero;stroke:none;stroke-width:0.78610319"
           d="m 94.93379,3240.7757 v 78.6336 H 81.60215 v 6.505 c 9.3193,7.987 16.94868,15.1923 22.85848,21.6579 5.95921,6.505 12.51138,14.6557 19.66639,24.4555 h 6.34463 v -41.7488 0 h 23.57991 v -10.8696 h -23.57991 v 0 -70.5657 c 0,-6.6707 0.72144,-11.2798 2.12477,-13.8739 1.40333,-2.5549 4.00245,-3.8299 7.70843,-3.8299 2.3323,0 4.76342,1.0699 7.23407,3.1704 2.5003,2.1422 5.02037,5.2687 7.48114,9.3454 l 6.26557,-2.511 c -3.5775,-8.6859 -8.64728,-15.4811 -15.23898,-20.3393 -6.55217,-4.8584 -13.87519,-7.2863 -21.91963,-7.2863 -9.57625,0 -16.85973,2.3473 -21.84057,7.0005 -4.89189,4.5676 -7.35266,11.3188 -7.35266,20.2562" />
        <path
           inkscape:connector-curvature="0"
           id="path4579"
           style="fill:#7f5433;fill-opacity:1;fill-rule:nonzero;stroke:none;stroke-width:0.78610319"
           d="m 179.07433,3241.2667 v 64.1466 c 0,7.4917 -0.84991,12.4329 -2.54972,14.8221 -1.70969,2.4274 -5.31684,3.7855 -10.90051,4.1157 v 5.9278 h 24.42981 24.55828 v 0 -89.0122 c 0,-7.4914 0.84991,-12.4327 2.5596,-14.8191 1.69981,-2.4304 5.31684,-3.7884 10.89063,-4.1182 v -5.9281 H 196.91244 165.6241 v 5.9281 c 5.58367,0.3298 9.23035,1.6878 10.94004,4.1182 1.66028,2.3864 2.51019,7.3277 2.51019,14.8191 z m 17.70963,145.7043 c 5.5738,0 10.25815,-1.854 14.08272,-5.557 3.83445,-3.7074 5.75168,-8.2364 5.75168,-13.6272 0,-5.3931 -1.91723,-9.9215 -5.75168,-13.629 -3.82457,-3.703 -8.50892,-5.557 -14.08272,-5.557 -5.57379,0 -10.25814,1.854 -14.0926,5.557 -3.82457,3.7075 -5.74179,8.2359 -5.74179,13.629 0,5.3908 1.91722,9.9198 5.74179,13.6272 3.83446,3.703 8.51881,5.557 14.0926,5.557" />
        <path
           inkscape:connector-curvature="0"
           id="path4581"
           style="fill:#7f5433;fill-opacity:1;fill-rule:nonzero;stroke:none;stroke-width:0.78610319"
           d="m 342.1275,3238.5921 c -7.14513,-8.6858 -14.76462,-15.1098 -22.80906,-19.3085 -8.04445,-4.1598 -16.77079,-6.2603 -26.17904,-6.2603 -15.61452,0 -28.60027,5.6007 -38.89795,16.8391 -10.29767,11.1991 -15.44651,25.2806 -15.44651,42.2834 0,17.4988 5.69238,32.0707 17.14632,43.6412 11.40453,11.568 25.75408,17.3739 42.94982,17.3739 10.97958,0 20.38783,-2.6331 28.29391,-7.9037 7.88633,-5.2713 11.83937,-11.5681 11.83937,-18.8565 0,-5.1469 -1.58122,-9.1407 -4.68436,-11.8982 -3.10314,-2.7601 -7.57008,-4.157 -13.40082,-4.157 -5.06977,0 -8.68681,1.7684 -10.90051,5.31 -2.21371,3.5417 -3.23162,9.3038 -3.06361,17.3327 0.0791,4.2814 -0.72143,7.4523 -2.43112,9.4695 -1.69981,2.0566 -4.378,3.0877 -8.04445,3.0877 -6.97712,0 -12.29396,-3.5004 -15.95053,-10.54 -3.62692,-7.0396 -5.4552,-17.2933 -5.4552,-30.7153 0,-16.3847 3.19208,-29.6429 9.61578,-39.7699 6.43358,-10.1294 14.90297,-15.1928 25.36866,-15.1928 4.99071,0 9.62566,1.0698 14.00365,3.2535 4.33847,2.1812 8.77576,5.6424 13.2427,10.4176 l 4.80295,-4.4064" />
        <path
           inkscape:connector-curvature="0"
           id="path4583"
           style="fill:#7f5433;fill-opacity:1;fill-rule:nonzero;stroke:none;stroke-width:0.78610319"
           d="m 426.23839,3296.7254 c -2.51019,8.8518 -6.51264,15.7694 -12.09632,20.7493 -5.56391,4.983 -12.03701,7.4942 -19.44897,7.4942 -4.89189,0 -8.89435,-1.3607 -11.91843,-4.0351 -3.01419,-2.7163 -4.546,-6.2166 -4.546,-10.5812 0,-4.0745 1.62075,-7.5768 4.85236,-10.4982 3.23162,-2.8826 9.23036,-6.2167 17.9567,-10.0047 13.87519,-6.0942 23.54038,-12.0227 28.94617,-17.7039 5.40578,-5.64 8.08397,-12.721 8.08397,-21.2431 0,-11.3238 -3.70598,-20.5055 -11.10805,-27.462 -7.36255,-6.9588 -17.15621,-10.4174 -29.28217,-10.4174 -7.15501,0 -15.62441,1.7708 -25.40819,5.3126 -3.48856,1.2774 -6.08769,1.7293 -7.74797,1.3165 -1.66028,-0.4104 -3.28102,-1.8515 -4.85236,-4.3209 l -1.3638,-2.1837 h -6.16675 0.0395 v 40.8838 0 h 6.97713 c 1.74922,-9.7996 5.91968,-17.7038 12.51138,-23.715 6.65099,-5.9697 14.42861,-8.9764 23.4119,-8.9764 5.53426,0 10.01108,1.4826 13.37117,4.4064 3.36009,2.9238 5.0599,6.8343 5.0599,11.6511 0,4.1597 -1.78876,7.8235 -5.36626,10.9524 -3.56762,3.0875 -10.20874,6.6683 -19.95299,10.8695 -13.28223,5.8035 -22.52247,11.4044 -27.6713,16.8785 -5.0599,5.395 -7.6195,12.1857 -7.6195,20.3778 0,11.0359 3.66645,19.8877 11.029,26.5977 7.36254,6.712 17.01785,10.0873 28.97581,10.0873 6.34463,0.083 13.79612,-1.4407 22.47305,-4.6115 2.5596,-0.9473 4.81283,-1.1525 6.76959,-0.574 1.96664,0.5327 3.53797,1.8515 4.68435,3.8693 l 0.5139,0.8204 h 5.61332 v 0 -35.9397 0 h -6.72017" />
        <path
           inkscape:connector-curvature="0"
           id="path4585"
           style="fill:#0099ff;fill-opacity:1;fill-rule:nonzero;stroke:none"
           d="m -517.79966,4190.2209 c 5.12,-74.51 -24.95,-147.99 -90.18,-220.446 -53.35,-59.59 -122.9,-111.687 -208.66,-156.289 -75.47,-39.594 -135.962,-60.953 -181.485,-64.07 -111.16404,-7.629 -169.53504,29.242 -175.11304,110.601 -1.18,17.133 5.531,35.661 20.117,55.594 11.824,13.715 23.648,27.43 35.472,41.153 0.825,34.477 1.239,51.717 1.239,51.717 -2.172,31.68 -14.215,184.02 -36.133,457.01 -7.055,2.09 -15.82,1.92 -26.289,-0.52 -14.059,-4.4 -22.41,-6.7 -25.055,-6.88 -15.355,-1.05 -23.91,11.27 -25.672,36.97 -2.703,39.39 27.856,70.75 91.672,94.05 40.996,14.86 85.051,23.9 132.164,27.13 104.28304,7.16 203.23304,-20.47 296.86304,-82.89 117.1,-78.88 180.79,-193.26 191.06,-343.13 z m -126.07,23.62 c -1.52,22.27 -10.96,43.56 -28.31,63.88 -6.41,8.17 -16.09,21.27 -29.02,39.31 -27.76,40.26 -83.78,73.85 -168.06,100.77 -59.814,19.13 -120.807,32.15 -182.97104,39.08 l -14.207,-13.88 c -6.062,-20.21 -7.738,-57.75 -5.039,-112.64 0.297,-4.28 3.024,-44.11 8.196,-119.48 14.804,-215.82 37.82,-322.653 69.05004,-320.516 34.407,2.363 91.731,27.375 171.951,75.039 83.23,50.457 134.58,92.697 154.05,126.727 19.47,34.04 27.59,74.61 24.36,121.71" />
        <path
           inkscape:connector-curvature="0"
           id="path4587"
           style="fill:#231f20;fill-opacity:1;fill-rule:nonzero;stroke:none"
           d="m -1260.7697,3971.9429 c 7.071,-103.082 -28.289,-176.226 -106.0859,-219.433 -52.144,-28.309 -134.996,-46.36 -248.562,-54.149 -59.734,-4.094 -115.223,5.621 -166.481,29.156 -62.734,28.934 -96.0582,71.864 -99.9605,128.789 -0.5821,8.465 8.5429,21.262 27.375,38.395 18.8242,17.137 32.6679,26.008 41.5156,26.617 2.9489,0.199 49.0939,-13.64 138.4339,-41.515 89.336,-27.883 160.183,-40.028 212.539,-36.438 33.183,2.277 56.492,8.129 69.926,17.551 18.382,12.855 26.464,35.433 24.246,67.742 -4.485,65.393 -29.399,158.553 -74.739,279.493 -45.336,120.94 -70.246,214.1 -74.734,279.49 -1.16,16.93 9.848,34.69 33.02,53.28 23.175,18.59 43.242,28.47 60.207,29.63 0,0 10.109,-1.62 30.335,-4.87 35.559,-43.16 66.86,-137.63 93.8989,-283.4 19.082,-105.35 32.101,-208.79 39.066,-310.338" />
      </g>
    </g>
  </g>
</svg>
